<svg width="17" height="17" viewBox="0 0 17 17" fill="none" xmlns="http://www.w3.org/2000/svg">
<g id="account 1">
<g id="user, account, people, man">
<path id="Vector" d="M12.6105 8.59822C12.5612 8.54782 12.5023 8.50774 12.4374 8.48032C12.3724 8.45289 12.3027 8.43867 12.2322 8.43848C12.1617 8.43829 12.0918 8.45213 12.0267 8.4792C11.9616 8.50627 11.9026 8.54603 11.853 8.59615C11.8034 8.64628 11.7643 8.70577 11.738 8.77116C11.7116 8.83656 11.6985 8.90654 11.6995 8.97703C11.7005 9.04753 11.7155 9.11713 11.7436 9.18177C11.7718 9.24641 11.8125 9.30481 11.8634 9.35355C12.3141 9.79706 12.6717 10.3261 12.9152 10.9097C13.1587 11.4933 13.2831 12.1196 13.2813 12.752C13.2813 13.4017 11.4188 14.3457 8.50003 14.3457C5.58128 14.3457 3.71878 13.4012 3.71878 12.7509C3.71699 12.1229 3.83978 11.5008 4.08004 10.9206C4.32031 10.3404 4.67328 9.81358 5.11851 9.37071C5.16887 9.32161 5.20898 9.263 5.23651 9.19828C5.26404 9.13356 5.27845 9.06402 5.27889 8.99369C5.27934 8.92336 5.26581 8.85365 5.23911 8.78858C5.2124 8.72352 5.17304 8.66441 5.1233 8.61468C5.07357 8.56495 5.01446 8.52558 4.9494 8.49887C4.88433 8.47217 4.81462 8.45864 4.74429 8.45909C4.67396 8.45953 4.60442 8.47394 4.5397 8.50147C4.47498 8.529 4.41637 8.56911 4.36727 8.61947C3.82297 9.16091 3.39147 9.80495 3.09778 10.5143C2.80408 11.2236 2.65402 11.9842 2.65628 12.752C2.65628 14.4772 5.66687 15.4082 8.50003 15.4082C11.3332 15.4082 14.3438 14.4772 14.3438 12.752C14.3461 11.979 14.194 11.2134 13.8964 10.5001C13.5987 9.78683 13.1615 9.1402 12.6105 8.59822Z" fill="#747D8C"/>
<path id="Vector_2" d="M8.5 9.0332C9.2355 9.0332 9.95448 8.8151 10.566 8.40648C11.1776 7.99786 11.6542 7.41707 11.9357 6.73756C12.2171 6.05805 12.2908 5.31033 12.1473 4.58896C12.0038 3.8676 11.6496 3.20498 11.1296 2.6849C10.6095 2.16482 9.94686 1.81065 9.22549 1.66716C8.50413 1.52367 7.75641 1.59731 7.0769 1.87878C6.39738 2.16024 5.81659 2.63688 5.40797 3.24843C4.99935 3.85997 4.78125 4.57896 4.78125 5.31445C4.78239 6.30038 5.17455 7.2456 5.8717 7.94275C6.56886 8.6399 7.51408 9.03207 8.5 9.0332ZM8.5 2.6582C9.02536 2.6582 9.53891 2.81399 9.97573 3.10586C10.4126 3.39774 10.753 3.81259 10.9541 4.29795C11.1551 4.78332 11.2077 5.3174 11.1052 5.83266C11.0027 6.34793 10.7497 6.82122 10.3783 7.19271C10.0068 7.56419 9.53347 7.81717 9.01821 7.91967C8.50295 8.02216 7.96886 7.96956 7.4835 7.76851C6.99813 7.56746 6.58328 7.22701 6.29141 6.79019C5.99954 6.35337 5.84375 5.83981 5.84375 5.31445C5.84458 4.61023 6.1247 3.93508 6.62266 3.43712C7.12063 2.93915 7.79577 2.65903 8.5 2.6582Z" fill="#747D8C"/>
</g>
</g>
</svg>
