<svg width="57" height="56" viewBox="0 0 57 56" fill="none" xmlns="http://www.w3.org/2000/svg">
<g id="bank 1">
<path id="Vector" d="M30.4997 23.3353V42.002C30.4997 42.968 29.7157 43.752 28.7497 43.752C27.7837 43.752 26.9997 42.968 26.9997 42.002V23.3353C26.9997 22.3693 27.7837 21.5853 28.7497 21.5853C29.7157 21.5853 30.4997 22.3693 30.4997 23.3353ZM40.4163 21.5853C39.4503 21.5853 38.6663 22.3693 38.6663 23.3353V42.002C38.6663 42.968 39.4503 43.752 40.4163 43.752C41.3823 43.752 42.1663 42.968 42.1663 42.002V23.3353C42.1663 22.3693 41.3823 21.5853 40.4163 21.5853ZM17.083 21.5853C16.117 21.5853 15.333 22.3693 15.333 23.3353V42.002C15.333 42.968 16.117 43.752 17.083 43.752C18.049 43.752 18.833 42.968 18.833 42.002V23.3353C18.833 22.3693 18.049 21.5853 17.083 21.5853Z" fill="#549BFF"/>
<path id="Vector_2" d="M13.1634 25.0853H44.3344C46.9991 25.0853 49.1644 22.9176 49.1644 20.2553C49.1644 18.699 48.4084 17.2313 47.1414 16.3236L33.9977 6.93431C30.9154 4.73397 26.5801 4.73397 23.4977 6.93431L10.3517 16.3236C9.08705 17.229 8.33105 18.699 8.33105 20.2553C8.33105 22.92 10.4987 25.0853 13.1611 25.0853H13.1634ZM12.3887 19.1703L25.5324 9.78097C26.4751 9.10664 27.5881 8.75197 28.7477 8.75197C29.9074 8.75197 31.0204 9.10897 31.9631 9.78097L45.1067 19.168C45.4567 19.4176 45.6644 19.8236 45.6644 20.253C45.6644 20.9856 45.0671 21.583 44.3344 21.583H13.1634C12.4307 21.583 11.8334 20.9856 11.8334 20.253C11.8334 19.8236 12.0387 19.42 12.3887 19.1703ZM45.0811 40.252H12.4167C10.1651 40.252 8.33339 42.0836 8.33339 44.3353V46.6686C8.33339 48.9203 10.1651 50.752 12.4167 50.752H45.0834C47.3351 50.752 49.1667 48.9203 49.1667 46.6686V44.3353C49.1667 42.0836 47.3327 40.252 45.0811 40.252ZM45.6644 46.6686C45.6644 46.9906 45.4031 47.252 45.0811 47.252H12.4167C12.0947 47.252 11.8334 46.9906 11.8334 46.6686V44.3353C11.8334 44.0133 12.0947 43.752 12.4167 43.752H45.0834C45.4054 43.752 45.6667 44.0133 45.6667 44.3353L45.6644 46.6686Z" fill="#1C217D"/>
</g>
</svg>
