<svg width="57" height="56" viewBox="0 0 57 56" fill="none" xmlns="http://www.w3.org/2000/svg">
<g id="cars 1">
<path id="Vector" d="M22.9997 25.6686C22.9997 26.6346 22.2157 27.4186 21.2497 27.4186H16.583C15.617 27.4186 14.833 26.6346 14.833 25.6686C14.833 24.7026 15.617 23.9186 16.583 23.9186H21.2497C22.2157 23.9186 22.9997 24.7026 22.9997 25.6686ZM39.9163 23.9186H35.2497C34.2837 23.9186 33.4997 24.7026 33.4997 25.6686C33.4997 26.6346 34.2837 27.4186 35.2497 27.4186H39.9163C40.8823 27.4186 41.6663 26.6346 41.6663 25.6686C41.6663 24.7026 40.8823 23.9186 39.9163 23.9186Z" fill="#549BFF"/>
<path id="Vector_2" d="M49.2504 20.4187C50.2164 20.4187 51.0004 19.6347 51.0004 18.6687C51.0004 17.7027 50.2164 16.9187 49.2504 16.9187H45.664L42.7707 11.1343C41.6764 8.94566 39.4784 7.58533 37.0307 7.58533H19.4677C17.02 7.58533 14.822 8.94333 13.7277 11.1343L10.8344 16.9187H7.24805C6.28205 16.9187 5.49805 17.7027 5.49805 18.6687C5.49805 19.6347 6.28205 20.4187 7.24805 20.4187H7.87805C6.36138 22.3577 5.49805 24.7027 5.49805 27.2017V35.002C5.49805 36.983 6.41738 38.733 7.83138 39.9113V43.1687C7.83138 46.062 10.188 48.4187 13.0814 48.4187H15.4147C18.308 48.4187 20.6647 46.062 20.6647 43.1687V41.4187H35.8314V43.1687C35.8314 46.062 38.188 48.4187 41.0814 48.4187H43.4147C46.308 48.4187 48.6647 46.062 48.6647 43.1687V39.9113C50.0787 38.733 50.9981 36.983 50.9981 35.002V27.2017C50.9981 24.7027 50.1347 22.3577 48.618 20.4187H49.2504ZM47.5004 30.9187H9.00038V27.2017C9.00038 25.1763 9.78905 23.27 11.2217 21.8373L12.6404 20.4187H43.858L45.2767 21.8373C46.7094 23.27 47.4981 25.1763 47.4981 27.2017L47.5004 30.9187ZM47.5004 35.002C47.5004 36.6097 46.1914 37.9187 44.5837 37.9187H11.917C10.3094 37.9187 9.00038 36.6097 9.00038 35.002V34.4187H47.5004V35.002ZM16.859 12.6953C17.356 11.7013 18.357 11.0853 19.4677 11.0853H37.0307C38.1437 11.0853 39.1424 11.7037 39.6394 12.6953L41.7487 16.9187H14.7497L16.859 12.6953ZM17.167 43.1687C17.167 44.1323 16.3807 44.9187 15.417 44.9187H13.0837C12.12 44.9187 11.3337 44.1323 11.3337 43.1687V41.4187H17.167V43.1687ZM45.167 41.4187V43.1687C45.167 44.1323 44.3807 44.9187 43.417 44.9187H41.0837C40.12 44.9187 39.3337 44.1323 39.3337 43.1687V41.4187H45.167Z" fill="#1C217D"/>
</g>
</svg>
