<svg width="57" height="56" viewBox="0 0 57 56" fill="none" xmlns="http://www.w3.org/2000/svg">
<g id="credit-card (1) 1">
<path id="Vector" d="M44.5833 9.91858H11.9167C8.377 9.91858 5.5 12.7956 5.5 16.3352V39.6686C5.5 43.2082 8.377 46.0852 11.9167 46.0852H44.5833C48.123 46.0852 51 43.2082 51 39.6686V16.3352C51 12.7956 48.123 9.91858 44.5833 9.91858ZM47.5 39.6686C47.5 41.2762 46.191 42.5852 44.5833 42.5852H11.9167C10.309 42.5852 9 41.2762 9 39.6686V16.3352C9 14.7276 10.309 13.4186 11.9167 13.4186H44.5833C46.191 13.4186 47.5 14.7276 47.5 16.3352V39.6686ZM23.5833 16.9186H16.5833C14.3317 16.9186 12.5 18.7502 12.5 21.0019V25.6686C12.5 27.9202 14.3317 29.7519 16.5833 29.7519H23.5833C25.835 29.7519 27.6667 27.9202 27.6667 25.6686V21.0019C27.6667 18.7502 25.835 16.9186 23.5833 16.9186ZM24.1667 25.6686C24.1667 25.9906 23.9053 26.2519 23.5833 26.2519H16.5833C16.2613 26.2519 16 25.9906 16 25.6686V21.0019C16 20.6799 16.2613 20.4186 16.5833 20.4186H23.5833C23.9053 20.4186 24.1667 20.6799 24.1667 21.0019V25.6686Z" fill="#1C217D"/>
<path id="Vector_2" d="M20.6667 37.3353C20.6667 38.3013 19.8827 39.0853 18.9167 39.0853H14.25C13.284 39.0853 12.5 38.3013 12.5 37.3353C12.5 36.3693 13.284 35.5853 14.25 35.5853H18.9167C19.8827 35.5853 20.6667 36.3693 20.6667 37.3353ZM30.5833 35.5853H25.9167C24.9507 35.5853 24.1667 36.3693 24.1667 37.3353C24.1667 38.3013 24.9507 39.0853 25.9167 39.0853H30.5833C31.5493 39.0853 32.3333 38.3013 32.3333 37.3353C32.3333 36.3693 31.5493 35.5853 30.5833 35.5853ZM42.25 35.5853H37.5833C36.6173 35.5853 35.8333 36.3693 35.8333 37.3353C35.8333 38.3013 36.6173 39.0853 37.5833 39.0853H42.25C43.216 39.0853 44 38.3013 44 37.3353C44 36.3693 43.216 35.5853 42.25 35.5853Z" fill="#549BFF"/>
</g>
</svg>
