<svg width="10" height="11" viewBox="0 0 10 11" fill="none" xmlns="http://www.w3.org/2000/svg">
<g clip-path="url(#clip0_291_1353)">
<path d="M5.71038 8.21576C5.76096 8.16553 5.80365 8.10993 5.84078 8.05218L9.71651 4.17626C10.0944 3.79798 10.0946 3.18491 9.71633 2.80644C9.33823 2.42816 8.72498 2.42816 8.34652 2.80644L5.0087 6.14462L1.6533 2.78958C1.27538 2.41112 0.661949 2.41112 0.283487 2.78958C0.094615 2.97881 8.96139e-05 3.22652 8.96031e-05 3.47422C8.95922e-05 3.72193 0.0946149 3.97017 0.283846 4.15886L4.17662 8.05218C4.21375 8.10993 4.25626 8.16535 4.30702 8.21576C4.50074 8.40947 4.75508 8.50238 5.0087 8.49808C5.2625 8.50256 5.5172 8.40947 5.71038 8.21576Z" fill="white"/>
</g>
<defs>
<clipPath id="clip0_291_1353">
<rect width="10" height="10" fill="white" transform="translate(10 0.501953) rotate(90)"/>
</clipPath>
</defs>
</svg>
