<svg width="32" height="32" viewBox="0 0 32 32" fill="none" xmlns="http://www.w3.org/2000/svg">
<g id="ic:round-email">
<path id="Vector" d="M26.667 5.33533H5.33366C3.86699 5.33533 2.68033 6.53533 2.68033 8.00199L2.66699 24.002C2.66699 25.4687 3.86699 26.6687 5.33366 26.6687H26.667C28.1337 26.6687 29.3337 25.4687 29.3337 24.002V8.00199C29.3337 6.53533 28.1337 5.33533 26.667 5.33533ZM26.1337 11.002L16.707 16.8953C16.2803 17.162 15.7203 17.162 15.2937 16.8953L5.86699 11.002C5.7333 10.9269 5.61622 10.8255 5.52284 10.7039C5.42947 10.5823 5.36174 10.443 5.32376 10.2945C5.28578 10.1459 5.27833 9.99124 5.30187 9.83974C5.32541 9.68823 5.37944 9.54308 5.4607 9.41306C5.54196 9.28304 5.64876 9.17087 5.77463 9.08332C5.9005 8.99577 6.04282 8.93468 6.19299 8.90373C6.34315 8.87277 6.49804 8.87262 6.64826 8.90326C6.79849 8.9339 6.94094 8.9947 7.06699 9.08199L16.0003 14.6687L24.9337 9.08199C25.0597 8.9947 25.2022 8.9339 25.3524 8.90326C25.5026 8.87262 25.6575 8.87277 25.8077 8.90373C25.9578 8.93468 26.1002 8.99577 26.226 9.08332C26.3519 9.17087 26.4587 9.28304 26.5399 9.41306C26.6212 9.54308 26.6752 9.68823 26.6988 9.83974C26.7223 9.99124 26.7149 10.1459 26.6769 10.2945C26.6389 10.443 26.5712 10.5823 26.4778 10.7039C26.3844 10.8255 26.2674 10.9269 26.1337 11.002Z" fill="#747D8C"/>
</g>
</svg>
