<svg width="24" height="25" viewBox="0 0 24 25" fill="none" xmlns="http://www.w3.org/2000/svg">
<g id="Insta">
<path id="Vector" d="M13.0276 2.50195C14.1526 2.50495 14.7236 2.51095 15.2166 2.52495L15.4106 2.53195C15.6346 2.53995 15.8556 2.54995 16.1226 2.56195C17.1866 2.61195 17.9126 2.77995 18.5496 3.02695C19.2096 3.28095 19.7656 3.62495 20.3216 4.17995C20.8301 4.67985 21.2236 5.28454 21.4746 5.95195C21.7216 6.58895 21.8896 7.31495 21.9396 8.37995C21.9516 8.64595 21.9616 8.86695 21.9696 9.09195L21.9756 9.28595C21.9906 9.77795 21.9966 10.349 21.9986 11.474L21.9996 12.22V13.53C22.0021 14.2594 21.9944 14.9888 21.9766 15.718L21.9706 15.912C21.9626 16.137 21.9526 16.358 21.9406 16.624C21.8906 17.689 21.7206 18.414 21.4746 19.052C21.2243 19.7197 20.8307 20.3246 20.3216 20.824C19.8216 21.3323 19.2169 21.7257 18.5496 21.977C17.9126 22.224 17.1866 22.392 16.1226 22.442C15.8853 22.4531 15.648 22.4631 15.4106 22.472L15.2166 22.478C14.7236 22.492 14.1526 22.499 13.0276 22.501L12.2816 22.502H10.9726C10.2429 22.5045 9.51312 22.4968 8.7836 22.479L8.5896 22.473C8.35221 22.464 8.11487 22.4536 7.8776 22.442C6.8136 22.392 6.0876 22.224 5.4496 21.977C4.78227 21.7263 4.17782 21.3328 3.6786 20.824C3.16965 20.3242 2.77582 19.7195 2.5246 19.052C2.2776 18.415 2.1096 17.689 2.0596 16.624C2.04846 16.3867 2.03846 16.1493 2.0296 15.912L2.0246 15.718C2.00617 14.9888 1.99784 14.2594 1.9996 13.53V11.474C1.99681 10.7446 2.00414 10.0151 2.0216 9.28595L2.0286 9.09195C2.0366 8.86695 2.0466 8.64595 2.0586 8.37995C2.1086 7.31495 2.2766 6.58995 2.5236 5.95195C2.77471 5.28386 3.16932 4.67898 3.6796 4.17995C4.17869 3.67143 4.78274 3.27794 5.4496 3.02695C6.0876 2.77995 6.8126 2.61195 7.8776 2.56195C8.1436 2.54995 8.3656 2.53995 8.5896 2.53195L8.7836 2.52595C9.51279 2.50819 10.2422 2.50052 10.9716 2.50295L13.0276 2.50195ZM11.9996 7.50195C10.6735 7.50195 9.40175 8.02874 8.46407 8.96642C7.52638 9.9041 6.9996 11.1759 6.9996 12.502C6.9996 13.828 7.52638 15.0998 8.46407 16.0375C9.40175 16.9752 10.6735 17.502 11.9996 17.502C13.3257 17.502 14.5975 16.9752 15.5351 16.0375C16.4728 15.0998 16.9996 13.828 16.9996 12.502C16.9996 11.1759 16.4728 9.9041 15.5351 8.96642C14.5975 8.02874 13.3257 7.50195 11.9996 7.50195ZM11.9996 9.50195C12.3936 9.50189 12.7837 9.57942 13.1477 9.73012C13.5117 9.88083 13.8424 10.1017 14.1211 10.3803C14.3997 10.6588 14.6207 10.9895 14.7715 11.3534C14.9224 11.7174 15 12.1075 15.0001 12.5015C15.0002 12.8954 14.9226 13.2855 14.7719 13.6495C14.6212 14.0135 14.4003 14.3443 14.1218 14.6229C13.8432 14.9015 13.5126 15.1226 13.1486 15.2734C12.7847 15.4242 12.3946 15.5019 12.0006 15.502C11.205 15.502 10.4419 15.1859 9.87928 14.6233C9.31667 14.0607 9.0006 13.2976 9.0006 12.502C9.0006 11.7063 9.31667 10.9432 9.87928 10.3806C10.4419 9.81802 11.205 9.50195 12.0006 9.50195M17.2506 6.00195C16.9191 6.00195 16.6011 6.13365 16.3667 6.36807C16.1323 6.60249 16.0006 6.92043 16.0006 7.25195C16.0006 7.58347 16.1323 7.90142 16.3667 8.13584C16.6011 8.37026 16.9191 8.50195 17.2506 8.50195C17.5821 8.50195 17.9001 8.37026 18.1345 8.13584C18.3689 7.90142 18.5006 7.58347 18.5006 7.25195C18.5006 6.92043 18.3689 6.60249 18.1345 6.36807C17.9001 6.13365 17.5821 6.00195 17.2506 6.00195Z" fill="white"/>
</g>
</svg>
