<svg width="32" height="32" viewBox="0 0 32 32" fill="none" xmlns="http://www.w3.org/2000/svg">
<g id="Insta">
<path id="Vector" d="M17.3708 2.66858C18.8708 2.67258 19.6321 2.68058 20.2894 2.69925L20.5481 2.70858C20.8468 2.71925 21.1414 2.73258 21.4974 2.74858C22.9161 2.81525 23.8841 3.03925 24.7334 3.36858C25.6135 3.70725 26.3548 4.16591 27.0961 4.90591C27.7741 5.57244 28.2987 6.3787 28.6335 7.26858C28.9628 8.11791 29.1868 9.08591 29.2535 10.5059C29.2695 10.8606 29.2828 11.1552 29.2935 11.4552L29.3015 11.7139C29.3215 12.3699 29.3295 13.1312 29.3321 14.6312L29.3335 15.6259V17.3726C29.3367 18.3451 29.3265 19.3177 29.3028 20.2899L29.2948 20.5486C29.2841 20.8486 29.2708 21.1432 29.2548 21.4979C29.1881 22.9179 28.9615 23.8846 28.6335 24.7352C28.2997 25.6256 27.7749 26.4321 27.0961 27.0979C26.4294 27.7757 25.6232 28.3002 24.7334 28.6352C23.8841 28.9646 22.9161 29.1886 21.4974 29.2552C21.1811 29.2701 20.8646 29.2835 20.5481 29.2952L20.2894 29.3032C19.6321 29.3219 18.8708 29.3312 17.3708 29.3339L16.3761 29.3352H14.6308C13.6578 29.3386 12.6848 29.3284 11.7121 29.3046L11.4535 29.2966C11.1369 29.2846 10.8205 29.2708 10.5041 29.2552C9.08545 29.1886 8.11745 28.9646 7.26678 28.6352C6.37701 28.3011 5.57107 27.7764 4.90545 27.0979C4.22685 26.4316 3.70175 25.6253 3.36678 24.7352C3.03745 23.8859 2.81345 22.9179 2.74678 21.4979C2.73193 21.1815 2.7186 20.8651 2.70678 20.5486L2.70012 20.2899C2.67555 19.3177 2.66444 18.3451 2.66678 17.3726V14.6312C2.66306 13.6587 2.67284 12.6862 2.69612 11.7139L2.70545 11.4552C2.71612 11.1552 2.72945 10.8606 2.74545 10.5059C2.81212 9.08591 3.03612 8.11925 3.36545 7.26858C3.70027 6.37778 4.22641 5.57128 4.90678 4.90591C5.57224 4.22788 6.37764 3.70323 7.26678 3.36858C8.11745 3.03925 9.08412 2.81525 10.5041 2.74858C10.8588 2.73258 11.1548 2.71925 11.4535 2.70858L11.7121 2.70058C12.6844 2.67689 13.6569 2.66667 14.6295 2.66991L17.3708 2.66858ZM16.0001 9.33525C14.232 9.33525 12.5363 10.0376 11.2861 11.2879C10.0358 12.5381 9.33345 14.2338 9.33345 16.0019C9.33345 17.77 10.0358 19.4657 11.2861 20.716C12.5363 21.9662 14.232 22.6686 16.0001 22.6686C17.7682 22.6686 19.4639 21.9662 20.7142 20.716C21.9644 19.4657 22.6668 17.77 22.6668 16.0019C22.6668 14.2338 21.9644 12.5381 20.7142 11.2879C19.4639 10.0376 17.7682 9.33525 16.0001 9.33525ZM16.0001 12.0019C16.5254 12.0018 17.0456 12.1052 17.5309 12.3061C18.0162 12.5071 18.4572 12.8016 18.8287 13.173C19.2002 13.5444 19.4949 13.9853 19.696 14.4706C19.8971 14.9558 20.0007 15.476 20.0008 16.0012C20.0009 16.5265 19.8975 17.0467 19.6966 17.532C19.4956 18.0174 19.2011 18.4584 18.8297 18.8299C18.4583 19.2014 18.0174 19.4961 17.5321 19.6972C17.0469 19.8983 16.5267 20.0018 16.0015 20.0019C14.9406 20.0019 13.9232 19.5805 13.173 18.8303C12.4229 18.0802 12.0015 17.0628 12.0015 16.0019C12.0015 14.941 12.4229 13.9236 13.173 13.1735C13.9232 12.4233 14.9406 12.0019 16.0015 12.0019M23.0014 7.33525C22.5594 7.33525 22.1355 7.51084 21.8229 7.8234C21.5104 8.13596 21.3348 8.55988 21.3348 9.00191C21.3348 9.44394 21.5104 9.86786 21.8229 10.1804C22.1355 10.493 22.5594 10.6686 23.0014 10.6686C23.4435 10.6686 23.8674 10.493 24.18 10.1804C24.4925 9.86786 24.6681 9.44394 24.6681 9.00191C24.6681 8.55988 24.4925 8.13596 24.18 7.8234C23.8674 7.51084 23.4435 7.33525 23.0014 7.33525Z" fill="#747D8C"/>
</g>
</svg>
