<svg width="24" height="25" viewBox="0 0 24 25" fill="none" xmlns="http://www.w3.org/2000/svg">
<g id="Icon / LinkedIn">
<path id="Vector" fill-rule="evenodd" clip-rule="evenodd" d="M4.5 3.74463C3.67157 3.74463 3 4.4162 3 5.24463V20.2446C3 21.073 3.67157 21.7446 4.5 21.7446H19.5C20.3284 21.7446 21 21.073 21 20.2446V5.24463C21 4.4162 20.3284 3.74463 19.5 3.74463H4.5ZM8.52076 7.74735C8.52639 8.7036 7.81061 9.29282 6.96123 9.2886C6.16107 9.28438 5.46357 8.64735 5.46779 7.74876C5.47201 6.9036 6.13998 6.22438 7.00764 6.24407C7.88795 6.26376 8.52639 6.90923 8.52076 7.74735ZM12.2797 10.5064H9.75971H9.7583V19.0662H12.4217V18.8665C12.4217 18.4866 12.4214 18.1066 12.4211 17.7265C12.4203 16.7127 12.4194 15.6978 12.4246 14.6843C12.426 14.4382 12.4372 14.1823 12.5005 13.9474C12.7381 13.0699 13.5271 12.5032 14.4074 12.6425C14.9727 12.731 15.3467 13.0587 15.5042 13.5917C15.6013 13.9249 15.6449 14.2835 15.6491 14.6309C15.6605 15.6785 15.6589 16.7261 15.6573 17.7738C15.6567 18.1436 15.6561 18.5136 15.6561 18.8834V19.0648H18.328V18.8595C18.328 18.4075 18.3278 17.9556 18.3275 17.5037C18.327 16.3742 18.3264 15.2447 18.3294 14.1148C18.3308 13.6043 18.276 13.1009 18.1508 12.6073C17.9638 11.8732 17.5771 11.2657 16.9485 10.827C16.5027 10.5148 16.0133 10.3137 15.4663 10.2912C15.404 10.2886 15.3412 10.2852 15.2781 10.2818C14.9984 10.2667 14.7141 10.2514 14.4467 10.3053C13.6817 10.4586 13.0096 10.8087 12.5019 11.426C12.4429 11.4968 12.3852 11.5687 12.2991 11.676L12.2797 11.7003V10.5064ZM5.68164 19.069H8.33242V10.512H5.68164V19.069Z" fill="white"/>
</g>
</svg>
