<svg width="32" height="32" viewBox="0 0 32 32" fill="none" xmlns="http://www.w3.org/2000/svg">
<g id="Icon / LinkedIn">
<path id="Vector" fill-rule="evenodd" clip-rule="evenodd" d="M6 4.32556C4.89543 4.32556 4 5.22099 4 6.32556V26.3256C4 27.4301 4.89543 28.3256 6 28.3256H26C27.1045 28.3256 28 27.4301 28 26.3256V6.32556C28 5.22099 27.1045 4.32556 26 4.32556H6ZM11.361 9.66252C11.3685 10.9375 10.4141 11.7231 9.28164 11.7175C8.21476 11.7119 7.28476 10.8625 7.29039 9.6644C7.29601 8.53752 8.18664 7.6319 9.34352 7.65815C10.5173 7.6844 11.3685 8.54503 11.361 9.66252ZM16.3729 13.3412H13.0129H13.0111V24.7544H16.5623V24.4881C16.5623 23.9816 16.5619 23.4749 16.5615 22.9681C16.5604 21.6164 16.5592 20.2632 16.5661 18.9118C16.568 18.5837 16.5829 18.2425 16.6673 17.9293C16.9841 16.7593 18.0361 16.0037 19.2099 16.1894C19.9636 16.3074 20.4623 16.7444 20.6723 17.455C20.8017 17.8993 20.8599 18.3774 20.8655 18.8406C20.8807 20.2374 20.8785 21.6342 20.8764 23.0312C20.8756 23.5242 20.8748 24.0176 20.8748 24.5106V24.7525H24.4373V24.4788C24.4373 23.8761 24.4371 23.2736 24.4367 22.671C24.436 21.165 24.4352 19.659 24.4392 18.1525C24.4411 17.4718 24.368 16.8006 24.2011 16.1425C23.9517 15.1637 23.4361 14.3537 22.598 13.7688C22.0036 13.3525 21.3511 13.0844 20.6217 13.0544C20.5387 13.0509 20.4549 13.0464 20.3708 13.0418C19.9979 13.0217 19.6188 13.0012 19.2623 13.0731C18.2423 13.2775 17.3461 13.7444 16.6692 14.5674C16.5905 14.6618 16.5136 14.7577 16.3988 14.9008L16.3729 14.9332V13.3412ZM7.57552 24.7581H11.1099V13.3487H7.57552V24.7581Z" fill="#747D8C"/>
</g>
</svg>
