<svg width="57" height="56" viewBox="0 0 57 56" fill="none" xmlns="http://www.w3.org/2000/svg">
<g id="loan (1) 1">
<path id="Vector" d="M47.4775 20.0243L42.3792 13.652L43.3872 10.628C43.8002 9.38662 43.5902 8.01229 42.8249 6.95062C42.0595 5.88662 40.8229 5.25195 39.5116 5.25195H31.9866C30.6752 5.25195 29.4386 5.88429 28.6732 6.95062C27.9079 8.01229 27.6979 9.38662 28.1109 10.628L29.1189 13.652L24.0229 20.0243C21.5916 23.0576 20.8146 27.071 21.9416 30.7553C22.2239 31.6793 23.1969 32.202 24.1279 31.915C25.0519 31.6326 25.5722 30.655 25.2876 29.7286C24.4989 27.1526 25.0449 24.341 26.7552 22.2106L31.9236 15.7496H39.5746L44.7452 22.213C45.9282 23.683 46.5512 25.4586 46.5512 27.3463C46.5512 28.3963 46.3506 29.4253 45.9492 30.4146C44.7336 33.5063 41.6769 35.583 38.3379 35.583C37.3719 35.583 36.5879 36.367 36.5879 37.333C36.5879 38.299 37.3719 39.083 38.3379 39.083C43.1025 39.083 47.4706 36.115 49.1996 31.712C49.7642 30.3143 50.0489 28.8466 50.0489 27.3463C50.0489 24.691 49.1319 22.0893 47.4729 20.022L47.4775 20.0243ZM32.3436 12.252L31.4336 9.51962C31.3519 9.27462 31.4476 9.08329 31.5129 8.99462C31.5782 8.90362 31.7276 8.75195 31.9866 8.75195H39.5116C39.7705 8.75195 39.9199 8.90362 39.9852 8.99462C40.0506 9.08329 40.1462 9.27229 40.0646 9.51962L39.1546 12.252H32.3412H32.3436Z" fill="#549BFF"/>
<g id="Group">
<path id="Vector_2" d="M52.4032 36.3856C51.3952 34.3696 49.0316 33.392 46.8895 34.1036L42.9206 35.4313C42.6196 35.534 42.3046 35.583 41.9919 35.583H37.4629C37.4909 35.3916 37.5049 35.198 37.5049 34.9996V34.323C37.5049 32.5986 36.4059 31.0516 34.7632 30.4753L29.6392 28.7043C29.5436 28.6716 29.4479 28.6483 29.3499 28.632L28.6569 28.5153C28.5589 28.499 28.4586 28.4896 28.3582 28.4896H18.3785C17.7019 27.1666 16.3415 26.2496 14.7549 26.2496H10.0882C7.83655 26.2496 6.00488 28.0813 6.00488 30.333V46.6663C6.00488 48.918 7.83655 50.7496 10.0882 50.7496H14.7549C16.3765 50.7496 17.7696 49.7906 18.4276 48.4163H36.9869C37.9786 48.4163 38.9702 48.1806 39.8546 47.7396L50.3709 42.4826C52.6109 41.365 53.5256 38.628 52.4079 36.3833L52.4032 36.3856ZM14.7502 47.252H10.0835C9.76155 47.252 9.50022 46.9906 9.50022 46.6686V30.3353C9.50022 30.0133 9.76155 29.752 10.0835 29.752H14.7502C15.0722 29.752 15.3335 30.0133 15.3335 30.3353V46.6686C15.3335 46.9906 15.0722 47.252 14.7502 47.252ZM48.8029 39.3536L38.2866 44.6106C37.8829 44.8113 37.4326 44.9186 36.9822 44.9186H18.8336V31.992H28.2089L33.6082 33.784C33.8392 33.8633 34.0002 34.0873 34.0002 34.3253V35.002C34.0002 35.3193 33.7342 35.5853 33.4169 35.5853H24.0836C23.1176 35.5853 22.3336 36.3693 22.3336 37.3353C22.3336 38.3013 23.1176 39.0853 24.0836 39.0853H41.9896C42.6826 39.0853 43.3662 38.9733 44.0289 38.7516L48.0002 37.4216C48.4855 37.256 49.0362 37.4823 49.2696 37.9466C49.5286 38.467 49.3186 39.0946 48.8029 39.3536Z" fill="#1C217D"/>
<path id="Vector_3" d="M38.3403 39.0853H33.417C32.451 39.0853 31.667 38.3013 31.667 37.3353C31.667 36.3693 32.451 35.5853 33.417 35.5853H38.3403C39.3063 35.5853 40.0903 36.3693 40.0903 37.3353C40.0903 38.3013 39.3063 39.0853 38.3403 39.0853Z" fill="#1C217D"/>
</g>
</g>
</svg>
