<svg width="67" height="28" viewBox="0 0 67 28" fill="none" xmlns="http://www.w3.org/2000/svg">
<path d="M9.78055 0.760976V1.36098C9.10055 1.38098 8.58055 1.46098 8.22055 1.60098C7.88055 1.72098 7.65055 1.96098 7.53055 2.32098C7.41055 2.66098 7.35055 3.20097 7.35055 3.94097V19.181C7.35055 19.801 7.39055 20.261 7.47055 20.561C7.57055 20.861 7.75055 21.061 8.01055 21.161C8.29055 21.261 8.70055 21.311 9.24055 21.311H10.7105C11.3905 21.311 12.0305 21.151 12.6305 20.831C13.2305 20.511 13.7705 20.061 14.2505 19.481C14.7305 18.881 15.1305 18.171 15.4505 17.351C15.7705 16.531 16.0105 15.621 16.1705 14.621H16.8605C16.8005 15.301 16.7705 16.181 16.7705 17.261C16.7705 17.721 16.7805 18.391 16.8005 19.271C16.8205 20.151 16.8805 21.061 16.9805 22.001C15.9605 21.961 14.8105 21.941 13.5305 21.941C12.2505 21.921 11.1105 21.911 10.1105 21.911C9.61055 21.911 8.97055 21.911 8.19055 21.911C7.41055 21.911 6.57055 21.921 5.67055 21.941C4.77055 21.941 3.86055 21.951 2.94055 21.971C2.02055 21.971 1.15055 21.981 0.330547 22.001V21.401C0.970547 21.361 1.45055 21.281 1.77055 21.161C2.09055 21.041 2.30055 20.801 2.40055 20.441C2.52055 20.081 2.58055 19.541 2.58055 18.821V3.94097C2.58055 3.20097 2.52055 2.66098 2.40055 2.32098C2.30055 1.96098 2.08055 1.72098 1.74055 1.60098C1.42055 1.46098 0.950547 1.38098 0.330547 1.36098V0.760976C0.830547 0.780976 1.50055 0.800976 2.34055 0.820976C3.20055 0.840975 4.11055 0.850975 5.07055 0.850975C5.95055 0.850975 6.81055 0.840975 7.65055 0.820976C8.51055 0.800976 9.22055 0.780976 9.78055 0.760976ZM26.1104 6.07098C27.5704 6.07098 28.8504 6.34098 29.9504 6.88098C31.0504 7.42098 31.9104 8.29098 32.5304 9.49098C33.1504 10.691 33.4604 12.281 33.4604 14.261C33.4604 16.241 33.1504 17.831 32.5304 19.031C31.9104 20.211 31.0504 21.071 29.9504 21.611C28.8504 22.151 27.5704 22.421 26.1104 22.421C24.6904 22.421 23.4204 22.151 22.3004 21.611C21.2004 21.071 20.3304 20.211 19.6904 19.031C19.0704 17.831 18.7604 16.241 18.7604 14.261C18.7604 12.281 19.0704 10.691 19.6904 9.49098C20.3304 8.29098 21.2004 7.42098 22.3004 6.88098C23.4204 6.34098 24.6904 6.07098 26.1104 6.07098ZM26.1104 6.67098C25.3104 6.67098 24.6404 7.27098 24.1004 8.47098C23.5604 9.65098 23.2904 11.581 23.2904 14.261C23.2904 16.941 23.5604 18.871 24.1004 20.051C24.6404 21.231 25.3104 21.821 26.1104 21.821C26.9304 21.821 27.6004 21.231 28.1204 20.051C28.6604 18.871 28.9304 16.941 28.9304 14.261C28.9304 11.581 28.6604 9.65098 28.1204 8.47098C27.6004 7.27098 26.9304 6.67098 26.1104 6.67098ZM41.1533 27.641C39.9133 27.641 38.8033 27.531 37.8233 27.311C36.8633 27.111 36.1033 26.791 35.5433 26.351C35.0033 25.931 34.7333 25.411 34.7333 24.791C34.7333 24.171 35.0133 23.611 35.5733 23.111C36.1333 22.631 36.9633 22.251 38.0633 21.971L38.3333 22.451C37.9533 22.751 37.6733 23.071 37.4933 23.411C37.3333 23.771 37.2533 24.141 37.2533 24.521C37.2533 25.361 37.6333 26.001 38.3933 26.441C39.1733 26.901 40.2233 27.131 41.5433 27.131C42.4433 27.131 43.2433 27.011 43.9433 26.771C44.6633 26.531 45.2233 26.171 45.6233 25.691C46.0433 25.211 46.2533 24.621 46.2533 23.921C46.2533 23.321 46.0333 22.811 45.5933 22.391C45.1533 21.991 44.2733 21.791 42.9533 21.791H41.0933C40.2733 21.791 39.5533 21.701 38.9333 21.521C38.3333 21.341 37.8633 21.061 37.5233 20.681C37.1833 20.281 37.0133 19.781 37.0133 19.181C37.0133 18.341 37.3433 17.601 38.0033 16.961C38.6633 16.321 39.6433 15.721 40.9433 15.161L41.2433 15.401C40.8633 15.641 40.5033 15.901 40.1633 16.181C39.8433 16.441 39.6833 16.781 39.6833 17.201C39.6833 17.841 40.0833 18.161 40.8833 18.161H44.1533C45.2533 18.161 46.2333 18.291 47.0933 18.551C47.9733 18.811 48.6633 19.241 49.1633 19.841C49.6833 20.421 49.9433 21.181 49.9433 22.121C49.9433 23.101 49.6233 24.011 48.9833 24.851C48.3633 25.691 47.4033 26.361 46.1033 26.861C44.8033 27.381 43.1533 27.641 41.1533 27.641ZM41.4533 15.611C40.3133 15.611 39.2933 15.441 38.3933 15.101C37.4933 14.761 36.7833 14.241 36.2633 13.541C35.7433 12.841 35.4833 11.941 35.4833 10.841C35.4833 9.74098 35.7433 8.84098 36.2633 8.14098C36.7833 7.42098 37.4933 6.90098 38.3933 6.58098C39.2933 6.24098 40.3133 6.07098 41.4533 6.07098C42.5933 6.07098 43.6133 6.24098 44.5133 6.58098C45.4133 6.90098 46.1233 7.42098 46.6433 8.14098C47.1633 8.84098 47.4233 9.74098 47.4233 10.841C47.4233 11.941 47.1633 12.841 46.6433 13.541C46.1233 14.241 45.4133 14.761 44.5133 15.101C43.6133 15.441 42.5933 15.611 41.4533 15.611ZM41.4533 15.071C41.9933 15.071 42.4133 14.771 42.7133 14.171C43.0133 13.551 43.1633 12.441 43.1633 10.841C43.1633 9.24098 43.0133 8.14098 42.7133 7.54098C42.4133 6.92098 41.9933 6.61098 41.4533 6.61098C40.9333 6.61098 40.5133 6.92098 40.1933 7.54098C39.8933 8.14098 39.7433 9.24098 39.7433 10.841C39.7433 12.441 39.8933 13.551 40.1933 14.171C40.5133 14.771 40.9333 15.071 41.4533 15.071ZM46.1333 8.65098L45.5333 8.44098C45.8333 7.66098 46.3133 7.01098 46.9733 6.49098C47.6533 5.97098 48.3833 5.71098 49.1633 5.71098C49.8033 5.71098 50.2833 5.89098 50.6033 6.25098C50.9433 6.59098 51.1133 7.04098 51.1133 7.60098C51.1133 8.20098 50.9533 8.65098 50.6333 8.95098C50.3133 9.23098 49.9533 9.37098 49.5533 9.37098C49.2133 9.37098 48.8933 9.25098 48.5933 9.01098C48.3133 8.77098 48.1533 8.41098 48.1133 7.93098C48.0733 7.43098 48.2433 6.79098 48.6233 6.01098L48.8333 6.19098C48.0733 6.47098 47.5033 6.80098 47.1233 7.18098C46.7433 7.54098 46.4133 8.03098 46.1333 8.65098ZM59.1866 6.07098C60.6466 6.07098 61.9266 6.34098 63.0266 6.88098C64.1266 7.42098 64.9866 8.29098 65.6066 9.49098C66.2266 10.691 66.5366 12.281 66.5366 14.261C66.5366 16.241 66.2266 17.831 65.6066 19.031C64.9866 20.211 64.1266 21.071 63.0266 21.611C61.9266 22.151 60.6466 22.421 59.1866 22.421C57.7666 22.421 56.4966 22.151 55.3766 21.611C54.2766 21.071 53.4066 20.211 52.7666 19.031C52.1466 17.831 51.8366 16.241 51.8366 14.261C51.8366 12.281 52.1466 10.691 52.7666 9.49098C53.4066 8.29098 54.2766 7.42098 55.3766 6.88098C56.4966 6.34098 57.7666 6.07098 59.1866 6.07098ZM59.1866 6.67098C58.3866 6.67098 57.7166 7.27098 57.1766 8.47098C56.6366 9.65098 56.3666 11.581 56.3666 14.261C56.3666 16.941 56.6366 18.871 57.1766 20.051C57.7166 21.231 58.3866 21.821 59.1866 21.821C60.0066 21.821 60.6766 21.231 61.1966 20.051C61.7366 18.871 62.0066 16.941 62.0066 14.261C62.0066 11.581 61.7366 9.65098 61.1966 8.47098C60.6766 7.27098 60.0066 6.67098 59.1866 6.67098Z" fill="white"/>
</svg>
