<svg width="70" height="24" viewBox="0 0 70 24" fill="none" xmlns="http://www.w3.org/2000/svg">
<g clip-path="url(#clip0_665_1641)">
<rect x="14" y="4.00195" width="56" height="17" rx="5" fill="#606CD6"/>
<path d="M26.7617 9.31445V15.002H26.0195V9.31445H26.7617ZM28.5898 9.31445V9.93164H24.1953V9.31445H28.5898ZM28.7422 12.9355V12.8457C28.7422 12.541 28.7865 12.2585 28.875 11.998C28.9635 11.735 29.0911 11.5072 29.2578 11.3145C29.4245 11.1191 29.6263 10.9681 29.8633 10.8613C30.1003 10.752 30.3659 10.6973 30.6602 10.6973C30.957 10.6973 31.224 10.752 31.4609 10.8613C31.7005 10.9681 31.9036 11.1191 32.0703 11.3145C32.2396 11.5072 32.3685 11.735 32.457 11.998C32.5456 12.2585 32.5898 12.541 32.5898 12.8457V12.9355C32.5898 13.2402 32.5456 13.5228 32.457 13.7832C32.3685 14.0436 32.2396 14.2715 32.0703 14.4668C31.9036 14.6595 31.7018 14.8105 31.4648 14.9199C31.2305 15.0267 30.9648 15.0801 30.668 15.0801C30.3711 15.0801 30.1042 15.0267 29.8672 14.9199C29.6302 14.8105 29.4271 14.6595 29.2578 14.4668C29.0911 14.2715 28.9635 14.0436 28.875 13.7832C28.7865 13.5228 28.7422 13.2402 28.7422 12.9355ZM29.4648 12.8457V12.9355C29.4648 13.1465 29.4896 13.3457 29.5391 13.5332C29.5885 13.7181 29.6628 13.8822 29.7617 14.0254C29.8633 14.1686 29.9896 14.2819 30.1406 14.3652C30.2917 14.446 30.4674 14.4863 30.668 14.4863C30.8659 14.4863 31.0391 14.446 31.1875 14.3652C31.3385 14.2819 31.4635 14.1686 31.5625 14.0254C31.6615 13.8822 31.7357 13.7181 31.7852 13.5332C31.8372 13.3457 31.8633 13.1465 31.8633 12.9355V12.8457C31.8633 12.6374 31.8372 12.4408 31.7852 12.2559C31.7357 12.0684 31.6602 11.903 31.5586 11.7598C31.4596 11.6139 31.3346 11.4993 31.1836 11.416C31.0352 11.3327 30.8607 11.291 30.6602 11.291C30.4622 11.291 30.2878 11.3327 30.1367 11.416C29.9883 11.4993 29.8633 11.6139 29.7617 11.7598C29.6628 11.903 29.5885 12.0684 29.5391 12.2559C29.4896 12.4408 29.4648 12.6374 29.4648 12.8457ZM34.2188 11.5879V16.627H33.4922V10.7754H34.1562L34.2188 11.5879ZM37.0664 12.8535V12.9355C37.0664 13.2428 37.0299 13.528 36.957 13.791C36.8841 14.0514 36.7773 14.278 36.6367 14.4707C36.4987 14.6634 36.3281 14.8132 36.125 14.9199C35.9219 15.0267 35.6888 15.0801 35.4258 15.0801C35.1576 15.0801 34.9206 15.0358 34.7148 14.9473C34.5091 14.8587 34.3346 14.7298 34.1914 14.5605C34.0482 14.3913 33.9336 14.1882 33.8477 13.9512C33.7643 13.7142 33.707 13.4473 33.6758 13.1504V12.7129C33.707 12.4004 33.7656 12.1204 33.8516 11.873C33.9375 11.6257 34.0508 11.4147 34.1914 11.2402C34.3346 11.0632 34.5078 10.929 34.7109 10.8379C34.9141 10.7441 35.1484 10.6973 35.4141 10.6973C35.6797 10.6973 35.9154 10.7493 36.1211 10.8535C36.3268 10.9551 36.5 11.1009 36.6406 11.291C36.7812 11.4811 36.8867 11.709 36.957 11.9746C37.0299 12.2376 37.0664 12.5306 37.0664 12.8535ZM36.3398 12.9355V12.8535C36.3398 12.6426 36.3177 12.4447 36.2734 12.2598C36.2292 12.0723 36.1602 11.9082 36.0664 11.7676C35.9753 11.6243 35.8581 11.5124 35.7148 11.4316C35.5716 11.3483 35.401 11.3066 35.2031 11.3066C35.0208 11.3066 34.862 11.3379 34.7266 11.4004C34.5938 11.4629 34.4805 11.5475 34.3867 11.6543C34.293 11.7585 34.2161 11.8783 34.1562 12.0137C34.099 12.1465 34.056 12.2845 34.0273 12.4277V13.4395C34.0794 13.6217 34.1523 13.7936 34.2461 13.9551C34.3398 14.1139 34.4648 14.2428 34.6211 14.3418C34.7773 14.4382 34.974 14.4863 35.2109 14.4863C35.4062 14.4863 35.5742 14.446 35.7148 14.3652C35.8581 14.2819 35.9753 14.1686 36.0664 14.0254C36.1602 13.8822 36.2292 13.7181 36.2734 13.5332C36.3177 13.3457 36.3398 13.1465 36.3398 12.9355ZM43.5156 13.1934H44.2656C44.2266 13.5527 44.1237 13.8743 43.957 14.1582C43.7904 14.4421 43.5547 14.6673 43.25 14.834C42.9453 14.998 42.5651 15.0801 42.1094 15.0801C41.776 15.0801 41.4727 15.0176 41.1992 14.8926C40.9284 14.7676 40.6953 14.5905 40.5 14.3613C40.3047 14.1296 40.1536 13.8522 40.0469 13.5293C39.9427 13.2038 39.8906 12.8418 39.8906 12.4434V11.877C39.8906 11.4785 39.9427 11.1178 40.0469 10.7949C40.1536 10.4694 40.306 10.1908 40.5039 9.95898C40.7044 9.72721 40.9453 9.54883 41.2266 9.42383C41.5078 9.29883 41.8242 9.23633 42.1758 9.23633C42.6055 9.23633 42.9688 9.31706 43.2656 9.47852C43.5625 9.63997 43.793 9.86393 43.957 10.1504C44.1237 10.4342 44.2266 10.7637 44.2656 11.1387H43.5156C43.4792 10.873 43.4115 10.6452 43.3125 10.4551C43.2135 10.2624 43.0729 10.1139 42.8906 10.0098C42.7083 9.9056 42.4701 9.85352 42.1758 9.85352C41.9232 9.85352 41.7005 9.90169 41.5078 9.99805C41.3177 10.0944 41.1576 10.2311 41.0273 10.4082C40.8997 10.5853 40.8034 10.7975 40.7383 11.0449C40.6732 11.2923 40.6406 11.5671 40.6406 11.8691V12.4434C40.6406 12.722 40.6693 12.9837 40.7266 13.2285C40.7865 13.4733 40.8763 13.6882 40.9961 13.873C41.1159 14.0579 41.2682 14.2038 41.4531 14.3105C41.638 14.4147 41.8568 14.4668 42.1094 14.4668C42.4297 14.4668 42.6849 14.416 42.875 14.3145C43.0651 14.2129 43.2083 14.0671 43.3047 13.877C43.4036 13.6868 43.474 13.459 43.5156 13.1934ZM45.9062 9.00195V15.002H45.1836V9.00195H45.9062ZM45.7344 12.7285L45.4336 12.7168C45.4362 12.4277 45.4792 12.1608 45.5625 11.916C45.6458 11.6686 45.763 11.4538 45.9141 11.2715C46.0651 11.0892 46.2448 10.9486 46.4531 10.8496C46.6641 10.748 46.8971 10.6973 47.1523 10.6973C47.3607 10.6973 47.5482 10.7259 47.7148 10.7832C47.8815 10.8379 48.0234 10.9264 48.1406 11.0488C48.2604 11.1712 48.3516 11.3301 48.4141 11.5254C48.4766 11.7181 48.5078 11.9538 48.5078 12.2324V15.002H47.7812V12.2246C47.7812 12.0033 47.7487 11.8262 47.6836 11.6934C47.6185 11.5579 47.5234 11.4603 47.3984 11.4004C47.2734 11.3379 47.1198 11.3066 46.9375 11.3066C46.7578 11.3066 46.5938 11.3444 46.4453 11.4199C46.2995 11.4954 46.1732 11.5996 46.0664 11.7324C45.9622 11.8652 45.8802 12.0176 45.8203 12.1895C45.763 12.3587 45.7344 12.5384 45.7344 12.7285ZM49.3984 12.9355V12.8457C49.3984 12.541 49.4427 12.2585 49.5312 11.998C49.6198 11.735 49.7474 11.5072 49.9141 11.3145C50.0807 11.1191 50.2826 10.9681 50.5195 10.8613C50.7565 10.752 51.0221 10.6973 51.3164 10.6973C51.6133 10.6973 51.8802 10.752 52.1172 10.8613C52.3568 10.9681 52.5599 11.1191 52.7266 11.3145C52.8958 11.5072 53.0247 11.735 53.1133 11.998C53.2018 12.2585 53.2461 12.541 53.2461 12.8457V12.9355C53.2461 13.2402 53.2018 13.5228 53.1133 13.7832C53.0247 14.0436 52.8958 14.2715 52.7266 14.4668C52.5599 14.6595 52.3581 14.8105 52.1211 14.9199C51.8867 15.0267 51.6211 15.0801 51.3242 15.0801C51.0273 15.0801 50.7604 15.0267 50.5234 14.9199C50.2865 14.8105 50.0833 14.6595 49.9141 14.4668C49.7474 14.2715 49.6198 14.0436 49.5312 13.7832C49.4427 13.5228 49.3984 13.2402 49.3984 12.9355ZM50.1211 12.8457V12.9355C50.1211 13.1465 50.1458 13.3457 50.1953 13.5332C50.2448 13.7181 50.319 13.8822 50.418 14.0254C50.5195 14.1686 50.6458 14.2819 50.7969 14.3652C50.9479 14.446 51.1237 14.4863 51.3242 14.4863C51.5221 14.4863 51.6953 14.446 51.8438 14.3652C51.9948 14.2819 52.1198 14.1686 52.2188 14.0254C52.3177 13.8822 52.3919 13.7181 52.4414 13.5332C52.4935 13.3457 52.5195 13.1465 52.5195 12.9355V12.8457C52.5195 12.6374 52.4935 12.4408 52.4414 12.2559C52.3919 12.0684 52.3164 11.903 52.2148 11.7598C52.1159 11.6139 51.9909 11.4993 51.8398 11.416C51.6914 11.3327 51.5169 11.291 51.3164 11.291C51.1185 11.291 50.944 11.3327 50.793 11.416C50.6445 11.4993 50.5195 11.6139 50.418 11.7598C50.319 11.903 50.2448 12.0684 50.1953 12.2559C50.1458 12.4408 50.1211 12.6374 50.1211 12.8457ZM54.9375 10.7754V15.002H54.2109V10.7754H54.9375ZM54.1562 9.6543C54.1562 9.53711 54.1914 9.43815 54.2617 9.35742C54.3346 9.27669 54.4414 9.23633 54.582 9.23633C54.7201 9.23633 54.8255 9.27669 54.8984 9.35742C54.974 9.43815 55.0117 9.53711 55.0117 9.6543C55.0117 9.76628 54.974 9.86263 54.8984 9.94336C54.8255 10.0215 54.7201 10.0605 54.582 10.0605C54.4414 10.0605 54.3346 10.0215 54.2617 9.94336C54.1914 9.86263 54.1562 9.76628 54.1562 9.6543ZM57.7891 14.4863C57.9609 14.4863 58.1198 14.4512 58.2656 14.3809C58.4115 14.3105 58.5312 14.2142 58.625 14.0918C58.7188 13.9668 58.7721 13.8249 58.7852 13.666H59.4727C59.4596 13.916 59.375 14.1491 59.2188 14.3652C59.0651 14.5788 58.8633 14.752 58.6133 14.8848C58.3633 15.015 58.0885 15.0801 57.7891 15.0801C57.4714 15.0801 57.194 15.0241 56.957 14.9121C56.7227 14.8001 56.5273 14.6465 56.3711 14.4512C56.2174 14.2559 56.1016 14.0319 56.0234 13.7793C55.9479 13.5241 55.9102 13.2546 55.9102 12.9707V12.8066C55.9102 12.5228 55.9479 12.2546 56.0234 12.002C56.1016 11.7467 56.2174 11.5215 56.3711 11.3262C56.5273 11.1309 56.7227 10.9772 56.957 10.8652C57.194 10.7533 57.4714 10.6973 57.7891 10.6973C58.1198 10.6973 58.4089 10.765 58.6562 10.9004C58.9036 11.0332 59.0977 11.2155 59.2383 11.4473C59.3815 11.6764 59.4596 11.9368 59.4727 12.2285H58.7852C58.7721 12.054 58.7227 11.8965 58.6367 11.7559C58.5534 11.6152 58.4388 11.5033 58.293 11.4199C58.1497 11.334 57.9818 11.291 57.7891 11.291C57.5677 11.291 57.3815 11.3353 57.2305 11.4238C57.082 11.5098 56.9635 11.627 56.875 11.7754C56.7891 11.9212 56.7266 12.084 56.6875 12.2637C56.651 12.4408 56.6328 12.6217 56.6328 12.8066V12.9707C56.6328 13.1556 56.651 13.3379 56.6875 13.5176C56.724 13.6973 56.7852 13.86 56.8711 14.0059C56.9596 14.1517 57.0781 14.2689 57.2266 14.3574C57.3776 14.4434 57.5651 14.4863 57.7891 14.4863ZM62.0391 15.0801C61.7448 15.0801 61.4779 15.0306 61.2383 14.9316C61.0013 14.8301 60.7969 14.6882 60.625 14.5059C60.4557 14.3236 60.3255 14.1074 60.2344 13.8574C60.1432 13.6074 60.0977 13.334 60.0977 13.0371V12.873C60.0977 12.5293 60.1484 12.2233 60.25 11.9551C60.3516 11.6842 60.4896 11.4551 60.6641 11.2676C60.8385 11.0801 61.0365 10.9382 61.2578 10.8418C61.4792 10.7454 61.7083 10.6973 61.9453 10.6973C62.2474 10.6973 62.5078 10.7493 62.7266 10.8535C62.9479 10.9577 63.1289 11.1035 63.2695 11.291C63.4102 11.4759 63.5143 11.6947 63.582 11.9473C63.6497 12.1973 63.6836 12.4707 63.6836 12.7676V13.0918H60.5273V12.502H62.9609V12.4473C62.9505 12.2598 62.9115 12.0775 62.8438 11.9004C62.7786 11.7233 62.6745 11.5775 62.5312 11.4629C62.388 11.3483 62.1927 11.291 61.9453 11.291C61.7812 11.291 61.6302 11.3262 61.4922 11.3965C61.3542 11.4642 61.2357 11.5658 61.1367 11.7012C61.0378 11.8366 60.9609 12.002 60.9062 12.1973C60.8516 12.3926 60.8242 12.6178 60.8242 12.873V13.0371C60.8242 13.2376 60.8516 13.4264 60.9062 13.6035C60.9635 13.778 61.0456 13.9316 61.1523 14.0645C61.2617 14.1973 61.3932 14.3014 61.5469 14.377C61.7031 14.4525 61.8802 14.4902 62.0781 14.4902C62.3333 14.4902 62.5495 14.4382 62.7266 14.334C62.9036 14.2298 63.0586 14.0905 63.1914 13.916L63.6289 14.2637C63.5378 14.4017 63.4219 14.5332 63.2812 14.6582C63.1406 14.7832 62.9674 14.8848 62.7617 14.9629C62.5586 15.041 62.3177 15.0801 62.0391 15.0801Z" fill="white"/>
<mask id="mask0_665_1641" style="mask-type:luminance" maskUnits="userSpaceOnUse" x="0" y="0" width="24" height="25">
<path d="M0 0.00195503H24V24.002H0V0.00195503Z" fill="white"/>
</mask>
<g mask="url(#mask0_665_1641)">
<path d="M17.7348 15.8213L20.3547 20.8318L20.3378 20.8407L16.5184 19.8066L15.1877 23.5332L12.2734 17.9598" fill="white"/>
<path d="M17.7348 15.8213L20.3547 20.8318L20.3378 20.8407L16.5184 19.8066L15.1877 23.5332L12.2734 17.9598" stroke="black" stroke-miterlimit="10" stroke-linejoin="round"/>
<path d="M6.26633 15.8213L3.64648 20.8318L3.66336 20.8407L7.48273 19.8066L8.81352 23.5332L11.7277 17.9598" fill="white"/>
<path d="M6.26633 15.8213L3.64648 20.8318L3.66336 20.8407L7.48273 19.8066L8.81352 23.5332L11.7277 17.9598" stroke="black" stroke-miterlimit="10" stroke-linejoin="round"/>
<path d="M14.11 0.726788C17.9216 1.67062 20.7471 5.11401 20.7471 9.21735C20.7471 14.048 16.8312 17.964 12.0005 17.964C7.16989 17.964 3.25391 14.048 3.25391 9.21735C3.25391 5.11401 6.07948 1.67066 9.89108 0.726788" fill="white"/>
<path d="M14.11 0.726788C17.9216 1.67062 20.7471 5.11401 20.7471 9.21735C20.7471 14.048 16.8312 17.964 12.0005 17.964C7.16989 17.964 3.25391 14.048 3.25391 9.21735C3.25391 5.11401 6.07948 1.67066 9.89108 0.726788" stroke="black" stroke-miterlimit="10" stroke-linecap="round" stroke-linejoin="round"/>
<path d="M12.4687 0.470703C12.4687 0.729594 12.2589 0.939453 12 0.939453C11.7411 0.939453 11.5312 0.729594 11.5312 0.470703C11.5312 0.211813 11.7411 0.00195318 12 0.00195318C12.2589 0.00195318 12.4687 0.211813 12.4687 0.470703Z" fill="black"/>
<path d="M12.0005 15.6202C8.47002 15.6202 5.59766 12.7479 5.59766 9.21735C5.59766 5.68682 8.47002 2.8145 12.0005 2.8145C15.5311 2.8145 18.4034 5.68682 18.4034 9.21735C18.4034 12.7479 15.5311 15.6202 12.0005 15.6202Z" fill="white" stroke="black" stroke-miterlimit="10" stroke-linejoin="round"/>
<path d="M9.5 10.002L11.5 11.502L14.5 8.00195" stroke="#606CD6" stroke-linecap="round" stroke-linejoin="round"/>
</g>
</g>
<defs>
<clipPath id="clip0_665_1641">
<rect width="70" height="24" fill="white" transform="translate(0 0.00195312)"/>
</clipPath>
</defs>
</svg>
