<svg width="18" height="18" viewBox="0 0 18 18" fill="none" xmlns="http://www.w3.org/2000/svg">
<path id="Search" d="M17.505 17.507C16.845 18.167 15.775 18.167 15.114 17.507L12.13 14.522C10.8665 15.3398 9.39406 15.7758 7.88903 15.778C6.32869 15.7782 4.80333 15.3157 3.50586 14.449C2.20839 13.5822 1.19708 12.3502 0.599828 10.9087C0.00257534 9.46718 -0.153796 7.88093 0.15049 6.35055C0.454776 4.82017 1.20605 3.41439 2.30931 2.31099C3.41256 1.2076 4.81825 0.456142 6.34859 0.151662C7.87894 -0.152818 9.4652 0.00335193 10.9068 0.600422C12.3484 1.19749 13.5805 2.20864 14.4474 3.50601C15.3143 4.80337 15.777 6.32866 15.777 7.889C15.777 9.454 15.307 10.905 14.521 12.132L17.505 15.115C18.165 15.775 18.165 16.845 17.505 17.505V17.507ZM7.88903 2.256C7.14278 2.24606 6.40199 2.38446 5.70966 2.66316C5.01734 2.94186 4.38727 3.35531 3.85604 3.87951C3.32482 4.4037 2.90301 5.02821 2.61511 5.71676C2.32721 6.40531 2.17896 7.14419 2.17896 7.8905C2.17896 8.63682 2.32721 9.3757 2.61511 10.0643C2.90301 10.7528 3.32482 11.3773 3.85604 11.9015C4.38727 12.4257 5.01734 12.8392 5.70966 13.1179C6.40199 13.3966 7.14278 13.5349 7.88903 13.525C9.38352 13.525 10.8168 12.9313 11.8736 11.8746C12.9303 10.8178 13.524 9.3845 13.524 7.89C13.524 6.39551 12.9303 4.96222 11.8736 3.90546C10.8168 2.84869 9.38352 2.256 7.88903 2.256Z" fill="#CDCDCD"/>
</svg>
