<svg width="32" height="32" viewBox="0 0 32 32" fill="none" xmlns="http://www.w3.org/2000/svg">
<path d="M24 21.4419C22.9867 21.4419 22.08 21.8419 21.3867 22.4686L11.88 16.9352C11.9467 16.6286 12 16.3219 12 16.0019C12 15.6819 11.9467 15.3752 11.88 15.0686L21.28 9.58858C22 10.2552 22.9467 10.6686 24 10.6686C26.2133 10.6686 28 8.88191 28 6.66858C28 4.45525 26.2133 2.66858 24 2.66858C21.7867 2.66858 20 4.45525 20 6.66858C20 6.98858 20.0533 7.29525 20.12 7.60191L10.72 13.0819C10 12.4152 9.05333 12.0019 8 12.0019C5.78667 12.0019 4 13.7886 4 16.0019C4 18.2152 5.78667 20.0019 8 20.0019C9.05333 20.0019 10 19.5886 10.72 18.9219L20.2133 24.4686C20.1467 24.7486 20.1067 25.0419 20.1067 25.3352C20.1067 27.4819 21.8533 29.2286 24 29.2286C26.1467 29.2286 27.8933 27.4819 27.8933 25.3352C27.8933 23.1886 26.1467 21.4419 24 21.4419Z" fill="#747D8C"/>
</svg>
