<svg width="20" height="20" viewBox="0 0 20 20" fill="none" xmlns="http://www.w3.org/2000/svg">
<path d="M9.09938 2.39195C9.19108 2.23458 9.32245 2.10401 9.48036 2.01326C9.63828 1.92251 9.81724 1.87476 9.99938 1.87476C10.1815 1.87476 10.3605 1.92251 10.5184 2.01326C10.6763 2.10401 10.8077 2.23458 10.8994 2.39195L13.2285 6.39029L17.7519 7.37029C17.9298 7.40895 18.0945 7.49358 18.2295 7.61573C18.3645 7.73788 18.4652 7.89329 18.5214 8.06647C18.5777 8.23965 18.5875 8.42454 18.55 8.60272C18.5125 8.78089 18.429 8.94613 18.3077 9.08195L15.2244 12.5328L15.691 17.137C15.7095 17.3182 15.68 17.5012 15.6056 17.6675C15.5312 17.8339 15.4144 17.9778 15.267 18.0849C15.1196 18.192 14.9466 18.2586 14.7654 18.278C14.5842 18.2973 14.4011 18.2688 14.2344 18.1953L9.99938 16.3286L5.76438 18.1953C5.59764 18.2688 5.41454 18.2973 5.23334 18.278C5.05214 18.2586 4.8792 18.192 4.73177 18.0849C4.58434 17.9778 4.4676 17.8339 4.39318 17.6675C4.31877 17.5012 4.2893 17.3182 4.30771 17.137L4.77438 12.5328L1.69104 9.08279C1.56957 8.94697 1.48584 8.78167 1.44822 8.60338C1.4106 8.4251 1.42041 8.24006 1.47666 8.06675C1.53292 7.89344 1.63365 7.73791 1.7688 7.6157C1.90395 7.49349 2.0688 7.40887 2.24688 7.37029L6.77021 6.39029L9.09938 2.39195Z" fill="#606CD6"/>
</svg>
