<svg width="30" height="30" viewBox="0 0 30 30" fill="none" xmlns="http://www.w3.org/2000/svg">
<circle cx="15" cy="15.002" r="14.5" stroke="#1C217D"/>
<path d="M9.33263 12.3353C9.33277 11.7033 9.49628 11.082 9.80731 10.5318C10.1183 9.98152 10.5663 9.52104 11.1078 9.19498C11.6493 8.86892 12.2658 8.68837 12.8976 8.67084C13.5294 8.65332 14.1551 8.79941 14.7138 9.09495C15.2725 9.39049 15.7453 9.82543 16.0864 10.3576C16.4274 10.8897 16.6251 11.501 16.6603 12.1321C16.6955 12.7631 16.5669 13.3926 16.2871 13.9593C16.0073 14.5261 15.5857 15.0109 15.0633 15.3667C16.1883 15.7793 17.1641 16.5191 17.8651 17.491C18.566 18.4629 18.9601 19.6223 18.9966 20.82C18.9951 20.9491 18.9437 21.0727 18.8532 21.1648C18.7627 21.257 18.6401 21.3106 18.511 21.3144C18.3819 21.3183 18.2563 21.2721 18.1605 21.1856C18.0646 21.0991 18.0059 20.9788 17.9966 20.85C17.9569 19.551 17.413 18.3184 16.4801 17.4136C15.5472 16.5088 14.2986 16.0027 12.999 16.0027C11.6993 16.0027 10.4508 16.5088 9.51785 17.4136C8.58494 18.3184 8.041 19.551 8.0013 20.85C7.99463 20.9806 7.93709 21.1033 7.84101 21.192C7.74493 21.2806 7.61795 21.3281 7.48728 21.3243C7.35661 21.3204 7.23264 21.2656 7.14193 21.1714C7.05121 21.0773 7.00097 20.9514 7.00197 20.8207C7.03834 19.6228 7.43237 18.4633 8.13336 17.4913C8.83434 16.5193 9.8102 15.7793 10.9353 15.3667C10.4412 15.0304 10.0368 14.5784 9.75748 14.0501C9.47813 13.5217 9.33228 12.933 9.33263 12.3353ZM12.9993 9.66867C12.2921 9.66867 11.6138 9.94962 11.1137 10.4497C10.6136 10.9498 10.3326 11.6281 10.3326 12.3353C10.3326 13.0426 10.6136 13.7209 11.1137 14.221C11.6138 14.7211 12.2921 15.002 12.9993 15.002C13.7065 15.002 14.3848 14.7211 14.8849 14.221C15.385 13.7209 15.666 13.0426 15.666 12.3353C15.666 11.6281 15.385 10.9498 14.8849 10.4497C14.3848 9.94962 13.7065 9.66867 12.9993 9.66867ZM18.526 12.3353C18.4273 12.3353 18.3313 12.342 18.2366 12.3553C18.1705 12.3672 18.1027 12.3656 18.0373 12.3506C17.9718 12.3357 17.91 12.3077 17.8556 12.2684C17.8012 12.2291 17.7553 12.1792 17.7205 12.1217C17.6858 12.0642 17.663 12.0003 17.6535 11.9339C17.644 11.8674 17.648 11.7997 17.6653 11.7348C17.6825 11.6699 17.7126 11.6092 17.7539 11.5562C17.7951 11.5032 17.8466 11.459 17.9052 11.4263C17.9639 11.3937 18.0285 11.3731 18.0953 11.366C18.7583 11.2701 19.4345 11.3975 20.0172 11.728C20.6 12.0584 21.0563 12.5733 21.3144 13.1916C21.5724 13.8098 21.6176 14.4963 21.4428 15.143C21.268 15.7898 20.8831 16.36 20.3486 16.764C21.1342 17.1158 21.8012 17.6873 22.2692 18.4098C22.7372 19.1322 22.9861 19.9746 22.986 20.8353C22.986 20.9679 22.9333 21.0951 22.8395 21.1889C22.7458 21.2827 22.6186 21.3353 22.486 21.3353C22.3534 21.3353 22.2262 21.2827 22.1324 21.1889C22.0386 21.0951 21.986 20.9679 21.986 20.8353C21.9859 20.0914 21.7462 19.3673 21.3024 18.7703C20.8586 18.1733 20.2343 17.7351 19.522 17.5207L19.166 17.414V16.2967L19.4393 16.1573C19.8445 15.9521 20.1687 15.6163 20.3595 15.2042C20.5504 14.792 20.5967 14.3276 20.4912 13.8858C20.3856 13.4441 20.1343 13.0508 19.7777 12.7695C19.4211 12.4882 18.9802 12.3352 18.526 12.3353Z" fill="#1C217D"/>
</svg>
