<svg width="32" height="32" viewBox="0 0 32 32" fill="none" xmlns="http://www.w3.org/2000/svg">
<g id="X (ex twitter)" clip-path="url(#clip0_362_2183)">
<g id="Group">
<path id="Vector" d="M26.3373 6.21395C26.4526 6.08211 26.5408 5.92884 26.5969 5.76291C26.653 5.59697 26.6758 5.42162 26.6641 5.24686C26.6524 5.0721 26.6064 4.90135 26.5287 4.74437C26.451 4.58739 26.3432 4.44725 26.2113 4.33195C26.0795 4.21665 25.9262 4.12845 25.7603 4.07238C25.5943 4.01631 25.419 3.99348 25.2442 4.00518C25.0695 4.01688 24.8987 4.06289 24.7418 4.14057C24.5848 4.21826 24.4446 4.32611 24.3293 4.45795L17.516 12.2446L11.7333 4.53529C11.6091 4.36969 11.4481 4.23529 11.263 4.14272C11.0778 4.05015 10.8737 4.00195 10.6667 4.00195H5.33333C5.08572 4.00195 4.84299 4.07091 4.63236 4.20109C4.42172 4.33126 4.2515 4.51753 4.14076 4.739C4.03003 4.96048 3.98315 5.20841 4.00539 5.45503C4.02763 5.70164 4.1181 5.93719 4.26667 6.13529L12.8493 17.578L5.66267 25.7913C5.54737 25.9231 5.45916 26.0764 5.4031 26.2423C5.34703 26.4083 5.32419 26.5836 5.33589 26.7584C5.34759 26.9331 5.3936 27.1039 5.47129 27.2609C5.54897 27.4178 5.65682 27.558 5.78867 27.6733C5.92051 27.7886 6.07378 27.8768 6.23971 27.9329C6.40565 27.9889 6.581 28.0118 6.75576 28.0001C6.93052 27.9884 7.10127 27.9424 7.25825 27.8647C7.41523 27.787 7.55537 27.6791 7.67067 27.5473L14.484 19.7593L20.2667 27.4686C20.3909 27.6342 20.5519 27.7686 20.737 27.8612C20.9222 27.9538 21.1263 28.002 21.3333 28.002H26.6667C26.9143 28.002 27.157 27.933 27.3676 27.8028C27.5783 27.6726 27.7485 27.4864 27.8592 27.2649C27.97 27.0434 28.0168 26.7955 27.9946 26.5489C27.9724 26.3023 27.8819 26.0667 27.7333 25.8686L19.1507 14.426L26.3373 6.21395Z" fill="#747D8C"/>
</g>
</g>
<defs>
<clipPath id="clip0_362_2183">
<rect width="32" height="32" fill="white" transform="translate(0 0.00195312)"/>
</clipPath>
</defs>
</svg>
