<svg width="24" height="25" viewBox="0 0 24 25" fill="none" xmlns="http://www.w3.org/2000/svg">
<g clip-path="url(#clip0_305_580)">
<path d="M19.753 5.16095C19.8395 5.06207 19.9056 4.94712 19.9477 4.82267C19.9897 4.69822 20.0069 4.5667 19.9981 4.43563C19.9893 4.30456 19.9548 4.1765 19.8965 4.05877C19.8383 3.94103 19.7574 3.83593 19.6585 3.74945C19.5596 3.66298 19.4447 3.59683 19.3202 3.55477C19.1958 3.51272 19.0642 3.4956 18.9332 3.50437C18.8021 3.51315 18.6741 3.54765 18.5563 3.60592C18.4386 3.66418 18.3335 3.74507 18.247 3.84395L13.137 9.68395L8.8 3.90195C8.70685 3.77776 8.58607 3.67695 8.44721 3.60753C8.30836 3.5381 8.15525 3.50195 8 3.50195H4C3.81429 3.50195 3.63225 3.55367 3.47427 3.6513C3.31629 3.74894 3.18863 3.88863 3.10557 4.05474C3.02252 4.22085 2.98736 4.4068 3.00404 4.59176C3.02072 4.77672 3.08857 4.95338 3.2 5.10195L9.637 13.684L4.247 19.844C4.16053 19.9428 4.09437 20.0578 4.05232 20.1822C4.01027 20.3067 3.99314 20.4382 4.00192 20.5693C4.01069 20.7003 4.0452 20.8284 4.10347 20.9461C4.16173 21.0639 4.24261 21.169 4.3415 21.2555C4.44039 21.3419 4.55534 21.4081 4.67979 21.4501C4.80424 21.4922 4.93575 21.5093 5.06682 21.5005C5.19789 21.4918 5.32595 21.4573 5.44368 21.399C5.56142 21.3407 5.66652 21.2598 5.753 21.161L10.863 15.32L15.2 21.102C15.2931 21.2262 15.4139 21.327 15.5528 21.3964C15.6916 21.4658 15.8448 21.502 16 21.502H20C20.1857 21.502 20.3678 21.4502 20.5257 21.3526C20.6837 21.255 20.8114 21.1153 20.8944 20.9492C20.9775 20.7831 21.0126 20.5971 20.996 20.4121C20.9793 20.2272 20.9114 20.0505 20.8 19.902L14.363 11.32L19.753 5.16095Z" fill="white"/>
</g>
<defs>
<clipPath id="clip0_305_580">
<rect width="24" height="24" fill="white" transform="translate(0 0.501953)"/>
</clipPath>
</defs>
</svg>
