<svg width="32" height="32" viewBox="0 0 32 32" fill="none" xmlns="http://www.w3.org/2000/svg">
<g id="Icon / Youtube">
<path id="Vector" d="M28.7911 9.60592C28.6392 9.04246 28.3424 8.52859 27.9303 8.11548C27.5181 7.70236 27.0049 7.4044 26.4418 7.25126C24.3538 6.67792 16.0004 6.66859 16.0004 6.66859C16.0004 6.66859 7.64844 6.65926 5.55911 7.20726C4.99634 7.36745 4.4842 7.66963 4.07186 8.08477C3.65952 8.49991 3.36082 9.01408 3.20444 9.57792C2.65377 11.6659 2.64844 15.9966 2.64844 15.9966C2.64844 15.9966 2.64311 20.3486 3.18977 22.4153C3.49644 23.5579 4.39644 24.4606 5.54044 24.7686C7.64977 25.3419 15.9804 25.3513 15.9804 25.3513C15.9804 25.3513 24.3338 25.3606 26.4218 24.8139C26.9851 24.661 27.4988 24.3638 27.912 23.9515C28.3252 23.5392 28.6236 23.0262 28.7778 22.4633C29.3298 20.3766 29.3338 16.0473 29.3338 16.0473C29.3338 16.0473 29.3604 11.6939 28.7911 9.60592ZM13.3284 20.0086L13.3351 12.0086L20.2778 16.0153L13.3284 20.0086Z" fill="#747D8C"/>
</g>
</svg>
