<svg width="24" height="25" viewBox="0 0 24 25" fill="none" xmlns="http://www.w3.org/2000/svg">
<g id="Icon / Youtube">
<path id="Vector" d="M21.5933 7.70496C21.4794 7.28236 21.2568 6.89696 20.9477 6.58713C20.6386 6.27729 20.2537 6.05382 19.8313 5.93896C18.2653 5.50896 12.0003 5.50196 12.0003 5.50196C12.0003 5.50196 5.73633 5.49496 4.16933 5.90596C3.74725 6.02611 3.36315 6.25274 3.0539 6.5641C2.74464 6.87545 2.52062 7.26108 2.40333 7.68396C1.99033 9.24996 1.98633 12.498 1.98633 12.498C1.98633 12.498 1.98233 15.762 2.39233 17.312C2.62233 18.169 3.29733 18.846 4.15533 19.077C5.73733 19.507 11.9853 19.514 11.9853 19.514C11.9853 19.514 18.2503 19.521 19.8163 19.111C20.2388 18.9963 20.6241 18.7733 20.934 18.4641C21.2439 18.1549 21.4677 17.7702 21.5833 17.348C21.9973 15.783 22.0003 12.536 22.0003 12.536C22.0003 12.536 22.0203 9.27096 21.5933 7.70496ZM9.99633 15.507L10.0013 9.50696L15.2083 12.512L9.99633 15.507Z" fill="white"/>
</g>
</svg>
